<?xml version="1.0" standalone="no"?>
<!DOCTYPE svg PUBLIC "-//W3C//DTD SVG 20010904//EN"
 "http://www.w3.org/TR/2001/REC-SVG-20010904/DTD/svg10.dtd">
<svg version="1.0" xmlns="http://www.w3.org/2000/svg"
 width="477.000000pt" height="523.000000pt" viewBox="0 0 477.000000 523.000000"
 preserveAspectRatio="xMidYMid meet">

<g transform="translate(0.000000,523.000000) scale(0.100000,-0.100000)"
fill="#c32439" stroke="none">
<path d="M2413 5130 c-176 -26 -328 -183 -354 -364 -25 -177 65 -357 221 -442
27 -15 50 -33 50 -40 0 -7 27 -294 60 -637 33 -344 60 -629 60 -635 0 -5 -30
-27 -66 -48 -38 -22 -94 -68 -128 -106 l-62 -66 -608 171 -607 172 -23 56
c-51 126 -122 199 -243 249 -71 30 -83 32 -173 28 -87 -3 -103 -6 -171 -40
-222 -110 -309 -367 -198 -585 110 -217 372 -295 597 -179 18 9 47 30 65 46
l34 29 604 -169 c332 -94 610 -173 618 -178 8 -4 20 -32 28 -62 19 -75 53
-146 96 -202 l36 -48 -367 -553 -367 -554 -70 -6 c-86 -8 -137 -25 -207 -70
-78 -50 -116 -93 -157 -177 -35 -72 -36 -79 -36 -186 0 -107 1 -112 37 -185
54 -108 143 -191 240 -220 200 -61 403 8 508 172 72 111 88 248 46 373 l-24
69 385 577 384 577 82 7 c152 13 277 73 387 186 l55 58 341 7 340 7 35 -44
c75 -96 160 -148 279 -168 296 -51 563 237 486 525 -44 166 -159 278 -328 321
-158 41 -354 -36 -447 -175 l-34 -51 -76 0 c-42 0 -174 -3 -293 -7 l-216 -6
-12 42 c-6 23 -10 47 -8 51 2 5 198 196 437 425 l434 415 41 -7 c245 -44 466
114 509 362 53 312 -265 577 -565 471 -119 -42 -202 -117 -256 -233 -25 -53
-27 -69 -28 -184 l-1 -127 -395 -378 c-217 -209 -406 -389 -420 -402 l-26 -23
-41 20 c-23 12 -41 29 -41 37 0 9 -27 297 -60 641 -33 343 -60 638 -60 654 0
23 12 42 51 81 166 166 165 441 -2 607 -101 100 -233 142 -376 121z"/>
</g>
</svg>
